PathFileType	4	(X/Y/Z)	./resultDataOpenSim/trcMotMarkerGrf/sub06/qtm-14-01.trc
DataRate	CameraRate	NumFrames	NumMarkers	Units	OrigDataRate	OrigDataStartFrame	OrigNumFrames
250.000000	250.000000	14	24	m	250.000000	206	547
Frame#	Time	L.Toe.Tip			R.Toe.Tip			L.Ankle.Lat			R.Ankle.Lat			L.Ankle.Med			R.Ankle.Med			L.Heel			R.Heel			L.Knee.Lat			R.Knee.Lat			L.Knee.Med			R.Knee.Med			L.Thigh.Upper			R.Thigh.Upper			L.ASIS			R.ASIS			V.Sacral			L.Acromium			R.Acromium			C7			L.Elbow			R.Elbow			L.Wrist.Lat			R.Wrist.Lat
		X1	Y1	Z1	X2	Y2	Z2	X3	Y3	Z3	X4	Y4	Z4	X5	Y5	Z5	X6	Y6	Z6	X7	Y7	Z7	X8	Y8	Z8	X9	Y9	Z9	X10	Y10	Z10	X11	Y11	Z11	X12	Y12	Z12	X13	Y13	Z13	X14	Y14	Z14	X15	Y15	Z15	X16	Y16	Z16	X17	Y17	Z17	X18	Y18	Z18	X19	Y19	Z19	X20	Y20	Z20	X21	Y21	Z21	X22	Y22	Z22	X23	Y23	Z23	X24	Y24	Z24

206	0.82	0.10100071	-0.040407088	-0.046641309	0.001808798	0.09149783	0.12025694	-0.017052145	0.0025541827	-0.087700095	-0.079652601	0.2016487	0.13163359	-0.026120887	0.020324335	-0.0019654983	-0.040276751	0.19959171	0.048032594	-0.09713651	-0.017373151	-0.051281768	-0.12942936	0.21853617	0.06673278	0.084290483	0.36571955	-0.099862594	0.21254965	0.4337066	0.17218283	0.043454082	0.37167094	0.017597353	0.20395344	0.42043347	0.040450176	0.076018984	0.75471533	-0.17500469	0.013916683	0.75684371	0.16463519	0.14009299	0.80134704	-0.12176385	0.10429019	0.81735804	0.12463001	-0.054647901	0.88682979	-0.030779866	0.094651719	1.2888632	-0.20104767	0.054253678	1.2856941	0.15817659	-0.001684757	1.3206231	-0.032378224	0.06403171	0.97314004	-0.26198709	-0.031433158	0.97608152	0.215862	0.216699	0.78522664	-0.29518175	0.11293241	0.78598372	0.27016736
207	0.824	0.1010953	-0.040371521	-0.046775769	0.022868033	0.090537784	0.12139839	-0.016800663	0.0034694068	-0.088048031	-0.061948174	0.19802865	0.13226181	-0.02524019	0.021528283	-0.0022452695	-0.023077973	0.19663517	0.048432742	-0.096764192	-0.015890346	-0.051402497	-0.11248783	0.21309959	0.067264618	0.085492087	0.36645633	-0.10027654	0.22477014	0.4381808	0.17084178	0.0448839	0.37255949	0.017467264	0.21463744	0.42503045	0.039900761	0.080792173	0.75567773	-0.17464277	0.022503112	0.75883472	0.1657909	0.14569404	0.80211723	-0.12229513	0.11156459	0.81887283	0.12386585	-0.047593387	0.88788802	-0.029275999	0.10157824	1.2901054	-0.20102803	0.061262895	1.2864886	0.15829581	0.005123003	1.3216619	-0.032257604	0.074057342	0.9734384	-0.2620108	-0.026731603	0.97778884	0.21591757	0.2309275	0.78884608	-0.29426327	0.11324302	0.78523375	0.27180837
208	0.828	0.10117119	-0.040364369	-0.046894065	0.044039453	0.089624544	0.12244882	-0.016488346	0.0044253835	-0.088328229	-0.044093942	0.19432194	0.13283217	-0.024503109	0.022709615	-0.0025172874	-0.0055371168	0.19350745	0.048861573	-0.096369209	-0.0143878	-0.051527698	-0.095428167	0.20754632	0.067752193	0.086801475	0.36719732	-0.10073001	0.23674969	0.44258812	0.16948977	0.046323087	0.37349866	0.017454535	0.22520609	0.42952659	0.039177942	0.085465701	0.75670769	-0.17466078	0.030890308	0.76071356	0.16673106	0.15124797	0.80298007	-0.12276571	0.1188205	0.82032145	0.12296523	-0.040994952	0.88904431	-0.026760455	0.10844232	1.2913023	-0.20098412	0.068361	1.2872293	0.15843088	0.011892961	1.3226593	-0.032059134	0.083937071	0.97378327	-0.26227678	-0.022014929	0.97954103	0.21607739	0.24509141	0.79254239	-0.29325775	0.11351623	0.78458451	0.27341675
209	0.832	0.10123211	-0.040371297	-0.047005027	0.065338202	0.088792533	0.12337734	-0.016101134	0.0053959766	-0.088545553	-0.026098766	0.19054361	0.13333025	-0.023901107	0.023868072	-0.002769012	0.012409138	0.19019799	0.049306037	-0.095964005	-0.012864358	-0.0516607	-0.078260051	0.20188642	0.06828361	0.088207185	0.36793937	-0.10121378	0.24850735	0.44689979	0.16814364	0.047926074	0.37447102	0.017454687	0.23561784	0.43388728	0.038357803	0.090127916	0.75776378	-0.17490499	0.039138072	0.76246497	0.16753939	0.15672694	0.80391243	-0.12318763	0.12607493	0.82170502	0.12195912	-0.03474281	0.89021606	-0.023861018	0.11525215	1.2924543	-0.20091658	0.075526657	1.2879194	0.15857856	0.018669078	1.3236154	-0.031818418	0.093736869	0.97416664	-0.262728	-0.017271066	0.98131343	0.21631901	0.25919823	0.79631159	-0.29215919	0.11377051	0.78404047	0.27498276
210	0.836	0.10130347	-0.040362558	-0.047121938	0.086753787	0.088062808	0.124161	-0.01567471	0.0063657368	-0.088732829	-0.0079615762	0.18670377	0.1337536	-0.023348889	0.025006377	-0.0029954497	0.030635564	0.18683153	0.049707709	-0.095555316	-0.011323272	-0.051787693	-0.060907217	0.19609875	0.06889723	0.089682446	0.36867792	-0.10169636	0.26005977	0.45110134	0.16682207	0.04983486	0.37547496	0.017275575	0.24585405	0.4380909	0.037512518	0.095063456	0.75878213	-0.1752231	0.047399757	0.7641422	0.16831759	0.1621681	0.80488883	-0.12355302	0.1334084	0.82304036	0.12091482	-0.028699398	0.89135033	-0.020999796	0.12201961	1.2935612	-0.20082676	0.082755119	1.2885661	0.15873876	0.025541285	1.3245278	-0.031607118	0.10352276	0.97456451	-0.26326158	-0.012491794	0.98308412	0.21661812	0.27325032	0.80015307	-0.29096262	0.11402606	0.78360923	0.27649731
211	0.84	0.10138841	-0.040333823	-0.047247803	0.1082549	0.087435194	0.12478606	-0.015243738	0.0073267615	-0.088916345	0.010321302	0.18281075	0.13410297	-0.022752579	0.026123768	-0.0032077328	0.048877728	0.18360587	0.049978233	-0.095138111	-0.0097778541	-0.051886459	-0.043300177	0.19016722	0.069511353	0.091215136	0.369408	-0.10214813	0.27141318	0.45519042	0.16553345	0.051997386	0.37651669	0.016860689	0.25591422	0.44212247	0.03668354	0.10040604	0.75969394	-0.1756339	0.055756703	0.76580137	0.1690601	0.16761316	0.80588021	-0.12384029	0.14093639	0.8243511	0.11990329	-0.022759416	0.89242805	-0.018380517	0.12875288	1.2946222	-0.20071374	0.090040913	1.2891774	0.1589123	0.032581154	1.325398	-0.031474385	0.11333886	0.97495987	-0.26377602	-0.007678802	0.98483664	0.21695123	0.2872458	0.80407063	-0.28966202	0.11429984	0.7832985	0.27795508
212	0.844	0.10147162	-0.040301598	-0.047377608	0.12981749	0.086907251	0.12523566	-0.014814807	0.0082738467	-0.089106693	0.02875393	0.17886932	0.13437715	-0.022079314	0.027221956	-0.0034174234	0.06701571	0.1805913	0.050036048	-0.094702815	-0.0082450769	-0.051947465	-0.025423777	0.18412692	0.070002915	0.092809444	0.37012401	-0.10256348	0.28255606	0.45916412	0.16427052	0.054206792	0.37759122	0.016362593	0.26581509	0.44596892	0.035874699	0.10597063	0.76047339	-0.17615654	0.064224679	0.76747298	0.16970174	0.17306858	0.80685827	-0.12405238	0.14873122	0.8256455	0.11896358	-0.016843941	0.89344529	-0.01612495	0.13545854	1.2956362	-0.2005769	0.097367003	1.2897601	0.15909933	0.039722559	1.3262394	-0.031350295	0.12322226	0.97535785	-0.26415824	-0.0028364103	0.9865628	0.21729682	0.30117528	0.80806995	-0.28825496	0.11460149	0.78311027	0.27935355
213	0.848	0.10154791	-0.040275498	-0.047511477	0.15142767	0.086485629	0.12549094	-0.014376094	0.0091996992	-0.089299763	0.047343362	0.17488053	0.13456992	-0.021360386	0.02830469	-0.0036282919	0.085164701	0.17770051	0.049846731	-0.094246313	-0.0067334436	-0.051976563	-0.007315396	0.17806905	0.070353481	0.094487014	0.37082335	-0.10297345	0.29347366	0.46300903	0.16302219	0.056343172	0.37867186	0.015966876	0.27558207	0.44961458	0.035076706	0.11135147	0.76116103	-0.17665315	0.072786101	0.76915843	0.17021064	0.17849945	0.80779069	-0.12424412	0.15673299	0.82689328	0.11807719	-0.010882903	0.89440042	-0.014363233	0.14214206	1.2966002	-0.20042065	0.10471665	1.2903159	0.1593025	0.046774891	1.3270694	-0.031066756	0.1332176	0.97578407	-0.26427404	0.0020336717	0.98826483	0.21763455	0.31502439	0.8121528	-0.28674382	0.11493764	0.78303952	0.2806925
214	0.852	0.10162679	-0.040252867	-0.047656656	0.17307041	0.086166128	0.12554234	-0.013927475	0.010101664	-0.089480039	0.066099797	0.1708555	0.13467124	-0.020634019	0.029371605	-0.0038464278	0.1034435	0.17483892	0.049469732	-0.093771416	-0.0052435013	-0.051981742	0.010983454	0.17207706	0.07064249	0.096283979	0.37150933	-0.10343874	0.30416855	0.46670572	0.16179177	0.058479411	0.37970977	0.015724394	0.28523832	0.45304672	0.034287571	0.11619308	0.76181092	-0.17694979	0.081378676	0.77083901	0.17060972	0.18388063	0.80864153	-0.12448384	0.1647707	0.8280346	0.11718066	-0.0048126724	0.89529199	-0.013223502	0.14880732	1.2975096	-0.20025156	0.11208191	1.2908391	0.15952311	0.053639802	1.3278829	-0.030551961	0.14335193	0.97626168	-0.26404699	0.0069275132	0.98995275	0.21794686	0.32877954	0.81631099	-0.28513309	0.11532186	0.78307888	0.2819758
215	0.856	0.10171845	-0.040228765	-0.047820275	0.19473914	0.085921671	0.12539061	-0.013504812	0.010998219	-0.08963104	0.085030838	0.16681965	0.13467586	-0.019912059	0.030416734	-0.0040817594	0.1218399	0.17197395	0.049071593	-0.093280601	-0.0037795011	-0.051964733	0.029503001	0.16616632	0.070919324	0.098213149	0.37218697	-0.1040053	0.31465328	0.47023501	0.16059882	0.060751576	0.3806537	0.015577555	0.2948046	0.45626313	0.03350619	0.12042075	0.76242623	-0.17698619	0.089915122	0.77249144	0.17093642	0.18925625	0.80939169	-0.12478768	0.17271521	0.82902492	0.11622542	0.0014064574	0.8961214	-0.012722446	0.15546016	1.2983612	-0.20007133	0.11945835	1.2913198	0.15975585	0.06043841	1.3286444	-0.029947024	0.15358345	0.97679053	-0.26359704	0.0118397	0.99163582	0.21822072	0.34242894	0.82052894	-0.28343351	0.11577739	0.78322086	0.28321093
216	0.86	0.10182075	-0.040201685	-0.047996566	0.21645105	0.085727636	0.12503662	-0.013169109	0.011933592	-0.089757198	0.10412896	0.16279058	0.13459404	-0.019184323	0.031436347	-0.0043325709	0.14030959	0.1691026	0.04881028	-0.092777661	-0.0023487253	-0.051919163	0.048326513	0.16030177	0.071145292	0.10018573	0.37285221	-0.10461759	0.32492727	0.47357443	0.15946134	0.063183145	0.38148711	0.015484819	0.30431243	0.45926665	0.032718686	0.12427883	0.76296358	-0.17681206	0.09834717	0.77410349	0.17121261	0.19469906	0.81004622	-0.12512216	0.18056749	0.82985949	0.11521477	0.00777007	0.89689157	-0.012627423	0.1621101	1.2991539	-0.19987689	0.12684081	1.291754	0.15999666	0.067369873	1.3293089	-0.029474475	0.16379564	0.97734732	-0.26323515	0.016770407	0.99331686	0.21844703	0.35596569	0.82479842	-0.28166242	0.11632633	0.78345721	0.28440616
217	0.864	0.10191409	-0.040175693	-0.048155394	0.23822847	0.085586437	0.12448288	-0.012942048	0.012948633	-0.089898112	0.12336223	0.15876735	0.13444819	-0.018428113	0.032434576	-0.0045798863	0.15887465	0.16623883	0.048657146	-0.092274657	-0.00094606599	-0.051833337	0.0675149	0.1544334	0.071223088	0.10200075	0.37348399	-0.10509203	0.33498119	0.47670579	0.15838128	0.065689362	0.38222912	0.015443155	0.31380369	0.46205711	0.031909488	0.12816178	0.76337964	-0.17654121	0.1067073	0.7756871	0.17146432	0.20019222	0.81060454	-0.12548337	0.18838545	0.8305522	0.11417727	0.014239762	0.89759634	-0.012458695	0.16876438	1.2998877	-0.1996671	0.13422256	1.2921472	0.16024754	0.074513671	1.329852	-0.029231331	0.17387676	0.97790114	-0.26321707	0.021724097	0.99499412	0.21861932	0.3693917	0.8291274	-0.27982894	0.1169751	0.78378071	0.2855688
218	0.868	0.10197772	-0.040157826	-0.048264272	0.26005285	0.08552492	0.12375157	-0.012730837	0.014016655	-0.090107076	0.1426986	0.15474892	0.13424373	-0.017621595	0.03341853	-0.00480799	0.17758983	0.16341681	0.048427729	-0.091789954	0.00044919518	-0.051699793	0.087085627	0.14851122	0.071043454	0.10352759	0.37405867	-0.10528541	0.34483355	0.47963941	0.15735283	0.068220473	0.38289617	0.01541991	0.32329265	0.46463476	0.031093366	0.13230332	0.76366157	-0.17630732	0.11508336	0.77727135	0.1717416	0.20558969	0.81103083	-0.12595824	0.19619012	0.8311095	0.11312746	0.020782049	0.8982155	-0.011743966	0.17542487	1.3005622	-0.19944334	0.14159729	1.2925066	0.16050729	0.081774447	1.3302863	-0.029110691	0.18380687	0.97843909	-0.26353269	0.026709025	0.99666157	0.21872931	0.38271295	0.83352668	-0.27792769	0.11772057	0.78418839	0.28670674
219	0.872	0.10201932	-0.040148686	-0.04833487	0.28186035	0.085582702	0.12288079	-0.012368203	0.015029939	-0.09039991	0.16214514	0.15074655	0.13394965	-0.016752822	0.034391384	-0.0050284224	0.19645642	0.16066264	0.048016853	-0.091328921	0.0018552342	-0.051530713	0.10701299	0.14252857	0.070527894	0.10489217	0.37457931	-0.10529245	0.35453568	0.48240624	0.15637817	0.070829113	0.3834812	0.015348601	0.33272432	0.46700971	0.030324553	0.13664098	0.76382498	-0.17618979	0.12351933	0.7788578	0.17207085	0.21076889	0.81128416	-0.12664439	0.203951	0.83152521	0.11205413	0.027381535	0.8987355	-0.010380996	0.18209401	1.3011762	-0.19920274	0.14896474	1.292831	0.16076888	0.088975184	1.3306533	-0.02890109	0.19365601	0.97897139	-0.26396453	0.031745781	0.99830319	0.21876157	0.39593065	0.83799231	-0.27595493	0.11857213	0.78468071	0.28783192
